<svg width="26" height="26" viewBox="0 0 26 26" fill="none" xmlns="http://www.w3.org/2000/svg">
<path d="M21.3056 5.05556H7.58333C7.29602 5.05556 7.02047 5.16969 6.8173 5.37286C6.61414 5.57602 6.5 5.85157 6.5 6.13889V23.4722C6.5 23.7595 6.61414 24.0351 6.8173 24.2383C7.02047 24.4414 7.29602 24.5556 7.58333 24.5556H21.3056C21.5929 24.5556 21.8684 24.4414 22.0716 24.2383C22.2748 24.0351 22.3889 23.7595 22.3889 23.4722V6.13889C22.3889 5.85157 22.2748 5.57602 22.0716 5.37286C21.8684 5.16969 21.5929 5.05556 21.3056 5.05556ZM20.9444 23.1111H7.94444V6.5H20.9444V23.1111Z" fill="white"/>
<path d="M18.7778 2.52778C18.7778 2.24046 18.6637 1.96491 18.4605 1.76175C18.2573 1.55858 17.9818 1.44444 17.6945 1.44444H3.97225C3.68493 1.44444 3.40938 1.55858 3.20622 1.76175C3.00305 1.96491 2.88892 2.24046 2.88892 2.52778V19.8611C2.88892 20.1484 3.00305 20.424 3.20622 20.6271C3.40938 20.8303 3.68493 20.9444 3.97225 20.9444H4.33336V2.88889H18.7778V2.52778Z" fill="white"/>
</svg>
